<svg xmlns="http://www.w3.org/2000/svg" viewBox="0 0 400 400" width="100%" height="100%">
  <!-- Drop Shadow / Base Plate to anchor the mascot -->
  <ellipse cx="200" cy="375" rx="90" ry="12" fill="#E2E8F0" />

  <!-- Main Shaggy Body Wool (Latxa coarse long wool) -->
  <path d="M 100,170 C 100,90 300,90 300,170 C 330,210 345,270 325,320 L 295,295 L 265,345 L 235,310 L 200,355 L 165,310 L 135,345 L 105,295 L 75,320 C 55,270 70,210 100,170 Z" fill="#F8FAFC" stroke="#94A3B8" stroke-width="4" stroke-linejoin="round"/>
  <path d="M 105,295 L 135,345 M 165,310 L 200,355 M 235,310 L 265,345" fill="none" stroke="#94A3B8" stroke-width="4" stroke-linecap="round"/>

  <!-- Drooping Ears -->
  <path d="M 130,155 C 85,145 55,175 65,205 C 70,220 95,205 125,180 Z" fill="#1E2530" />
  <path d="M 270,155 C 315,145 345,175 335,205 C 330,220 305,205 275,180 Z" fill="#1E2530" />

  <!-- Canonical Dark Face Mask -->
  <path d="M 135,165 C 135,105 265,105 265,165 C 265,220 240,270 200,270 C 160,270 135,220 135,165 Z" fill="#1E2530" />

  <!-- Vector Eyes -->
  <circle cx="175" cy="160" r="22" fill="#FFFFFF" />
  <circle cx="178" cy="160" r="11" fill="#0B0F19" />
  <circle cx="176" cy="156" r="3.5" fill="#FFFFFF" />
  <circle cx="225" cy="160" r="22" fill="#FFFFFF" />
  <circle cx="222" cy="160" r="11" fill="#0B0F19" />
  <circle cx="224" cy="156" r="3.5" fill="#FFFFFF" />

  <!-- Shaggy Forehead Wool ("Bangs") -->
  <path d="M 138,140 C 145,105 255,105 262,140 L 245,155 L 230,140 L 200,165 L 170,140 L 155,155 Z" fill="#F8FAFC" stroke="#94A3B8" stroke-width="3" stroke-linejoin="round" />

  <!-- Expressive Eyebrows -->
  <path d="M 155,128 Q 170,118 182,126" fill="none" stroke="#1E2530" stroke-width="4.5" stroke-linecap="round" />
  <path d="M 245,128 Q 230,118 218,126" fill="none" stroke="#1E2530" stroke-width="4.5" stroke-linecap="round" />

  <!-- Nose & Happy Smile -->
  <path d="M 190,220 L 210,220 C 215,220 213,228 200,231 C 187,228 185,220 190,220 Z" fill="#0B0F19" />
  <path d="M 184,242 Q 200,254 216,242" fill="none" stroke="#FFFFFF" stroke-width="4" stroke-linecap="round" />
</svg>
