<svg xmlns="http://www.w3.org/2000/svg" viewBox="0 0 400 400" width="100%" height="100%">
  <ellipse cx="200" cy="375" rx="90" ry="12" fill="#E2E8F0" />
  <path d="M 100,170 C 100,90 300,90 300,170 C 330,210 345,270 325,320 L 295,295 L 265,345 L 235,310 L 200,355 L 165,310 L 135,345 L 105,295 L 75,320 C 55,270 70,210 100,170 Z" fill="#F8FAFC" stroke="#94A3B8" stroke-width="4" stroke-linejoin="round"/>
  <path d="M 105,295 L 135,345 M 165,310 L 200,355 M 235,310 L 265,345" fill="none" stroke="#94A3B8" stroke-width="4" stroke-linecap="round"/>
  <path d="M 130,155 C 85,145 55,175 65,205 C 70,220 95,205 125,180 Z" fill="#1E2530" />
  <path d="M 270,155 C 315,145 345,175 335,205 C 330,220 305,205 275,180 Z" fill="#1E2530" />
  <path d="M 135,165 C 135,105 265,105 265,165 C 265,220 240,270 200,270 C 160,270 135,220 135,165 Z" fill="#1E2530" />
  <path d="M 154,162 L 190,162 A 18,18 0 0,1 154,162 Z" fill="#FFFFFF" />
  <circle cx="172" cy="170" r="5" fill="#0B0F19" />
  <path d="M 210,162 L 246,162 A 18,18 0 0,1 210,162 Z" fill="#FFFFFF" />
  <circle cx="228" cy="170" r="5" fill="#0B0F19" />
  <path d="M 138,140 C 145,105 255,105 262,140 L 245,155 L 230,140 L 200,165 L 170,140 L 155,155 Z" fill="#F8FAFC" stroke="#94A3B8" stroke-width="3" stroke-linejoin="round" />
  <path d="M 152,138 L 182,135" fill="none" stroke="#1E2530" stroke-width="4" stroke-linecap="round" />
  <path d="M 248,138 L 218,135" fill="none" stroke="#1E2530" stroke-width="4" stroke-linecap="round" />
  <path d="M 190,220 L 210,220 C 215,220 213,228 200,231 C 187,228 185,220 190,220 Z" fill="#0B0F19" />
  <line x1="188" y1="240" x2="212" y2="240" stroke="#FFFFFF" stroke-width="4" stroke-linecap="round" />
  <text x="295" y="140" font-family="system-ui, sans-serif" font-size="14" font-weight="bold" fill="#94A3B8" transform="rotate(-15, 295, 140)">Z</text>
  <text x="315" y="115" font-family="system-ui, sans-serif" font-size="20" font-weight="bold" fill="#94A3B8" transform="rotate(-15, 315, 115)">Z</text>
</svg>
