<svg xmlns="http://www.w3.org/2000/svg" viewBox="90 75 220 220" width="100%" height="100%">
  <!-- Face-only crop of latxa-logo.svg's Pozik (happy) state — the full
       400x400 body illustration reads as illegible mud at avatar sizes
       (48-80px), so this crop drops the body/legs/ground-shadow and keeps
       just the ears/face-mask/eyes/eyebrows/smile for compact placements
       (home banner, lesson preview, profile avatar, onboarding). Same
       paths as latxa-logo.svg, just re-cropped via viewBox. -->
  <path d="M 130,155 C 85,145 55,175 65,205 C 70,220 95,205 125,180 Z" fill="#1E2530" />
  <path d="M 270,155 C 315,145 345,175 335,205 C 330,220 305,205 275,180 Z" fill="#1E2530" />
  <path d="M 135,165 C 135,105 265,105 265,165 C 265,220 240,270 200,270 C 160,270 135,220 135,165 Z" fill="#1E2530" />
  <circle cx="175" cy="160" r="22" fill="#FFFFFF" />
  <circle cx="178" cy="160" r="11" fill="#0B0F19" />
  <circle cx="176" cy="156" r="3.5" fill="#FFFFFF" />
  <circle cx="225" cy="160" r="22" fill="#FFFFFF" />
  <circle cx="222" cy="160" r="11" fill="#0B0F19" />
  <circle cx="224" cy="156" r="3.5" fill="#FFFFFF" />
  <path d="M 138,140 C 145,105 255,105 262,140 L 245,155 L 230,140 L 200,165 L 170,140 L 155,155 Z" fill="#F8FAFC" stroke="#94A3B8" stroke-width="3" stroke-linejoin="round" />
  <path d="M 155,128 Q 170,118 182,126" fill="none" stroke="#1E2530" stroke-width="4.5" stroke-linecap="round" />
  <path d="M 245,128 Q 230,118 218,126" fill="none" stroke="#1E2530" stroke-width="4.5" stroke-linecap="round" />
  <path d="M 190,220 L 210,220 C 215,220 213,228 200,231 C 187,228 185,220 190,220 Z" fill="#0B0F19" />
  <path d="M 184,242 Q 200,254 216,242" fill="none" stroke="#FFFFFF" stroke-width="4" stroke-linecap="round" />
</svg>
